<?xml version="1.0" encoding="UTF-8" ?>
<!DOCTYPE svg PUBLIC "-//W3C//DTD SVG 1.1//EN" "http://www.w3.org/Graphics/SVG/1.1/DTD/svg11.dtd">
<svg width="300pt" height="295pt" viewBox="0 0 300 295" version="1.1" xmlns="http://www.w3.org/2000/svg">
<g id="#55646aff">
<path fill="#55646a" opacity="1.00" d=" M 90.96 49.64 C 97.54 47.12 105.39 46.70 111.65 50.32 C 115.65 52.53 118.57 56.22 120.79 60.14 C 114.97 59.06 109.16 57.60 103.90 54.83 C 103.52 54.64 102.76 54.25 102.38 54.05 C 101.90 53.82 100.94 53.35 100.46 53.11 C 97.38 51.71 94.14 50.75 90.96 49.64 Z" />
<path fill="#55646a" opacity="1.00" d=" M 106.51 65.42 C 111.98 65.26 117.46 65.29 122.92 65.51 C 125.60 71.61 127.40 78.66 132.91 82.93 C 135.99 85.63 140.10 86.35 143.99 87.09 C 140.44 87.61 136.76 88.67 133.20 87.61 C 129.59 86.81 126.82 84.25 123.98 82.08 C 122.55 80.87 120.32 80.71 118.84 81.92 C 117.66 84.12 118.18 87.22 120.30 88.68 C 124.71 91.86 130.32 92.84 135.65 92.89 C 132.99 94.50 130.24 96.33 127.03 96.42 C 119.69 96.84 112.51 92.41 109.56 85.69 C 105.94 79.55 106.51 72.25 106.51 65.42 Z" />
<path fill="#55646a" opacity="1.00" d=" M 139.40 101.54 C 143.42 99.89 148.02 99.53 152.13 101.07 C 155.83 102.31 158.73 105.01 161.54 107.60 C 158.46 106.46 155.24 105.49 151.91 105.73 C 146.15 105.55 140.70 108.41 134.93 107.56 C 130.92 107.07 127.26 105.29 123.67 103.56 C 128.98 103.93 134.41 103.50 139.40 101.54 Z" />
</g>
<g id="#333c3fff">
<path fill="#333c3f" opacity="1.00" d=" M 89.13 50.22 C 89.66 50.00 90.19 49.78 90.73 49.56 L 90.96 49.64 C 94.14 50.75 97.38 51.71 100.46 53.11 C 100.80 54.38 101.16 55.64 101.54 56.89 C 102.13 56.38 103.31 55.35 103.90 54.83 C 109.16 57.60 114.97 59.06 120.79 60.14 C 121.51 61.92 122.21 63.72 122.92 65.51 C 117.46 65.29 111.98 65.26 106.51 65.42 C 106.51 72.25 105.94 79.55 109.56 85.69 C 112.51 92.41 119.69 96.84 127.03 96.42 C 130.24 96.33 132.99 94.50 135.65 92.89 C 142.60 92.71 150.89 92.44 156.26 97.63 C 152.65 96.26 148.90 94.99 144.99 95.16 C 137.28 95.14 130.94 101.40 123.07 100.34 C 118.01 100.21 114.07 96.34 109.08 96.04 C 109.40 102.44 116.27 104.84 121.30 106.81 C 114.57 106.12 108.04 103.46 102.72 99.29 C 95.74 93.77 92.21 84.15 94.19 75.45 C 95.58 68.93 96.05 62.15 95.22 55.53 C 94.66 52.52 91.57 51.36 89.13 50.22 Z" />
</g>
<g id="#109247ff">
<path fill="#109247" opacity="1.00" d=" M 240.18 103.15 C 245.30 100.75 252.16 104.28 252.58 110.05 C 253.51 115.42 248.38 120.75 242.96 119.84 C 236.86 119.68 233.26 112.24 236.04 107.06 C 237.03 105.43 238.44 103.97 240.18 103.15 Z" />
<path fill="#109247" opacity="1.00" d=" M 69.58 133.32 C 80.33 118.67 99.08 110.62 117.10 112.56 C 141.28 114.84 162.11 135.74 164.43 159.90 C 164.81 165.20 164.58 170.53 164.64 175.85 C 159.52 176.13 154.39 176.23 149.27 176.12 C 152.07 167.32 151.58 157.54 147.64 149.17 C 142.55 137.51 131.36 128.84 118.84 126.70 C 114.08 126.05 109.21 126.03 104.46 126.77 C 93.70 128.80 84.05 135.67 78.38 145.01 C 74.99 141.47 72.18 137.45 69.58 133.32 Z" />
<path fill="#109247" opacity="1.00" d=" M 238.63 128.60 C 242.06 125.26 249.27 126.20 250.70 131.06 C 251.29 139.83 250.41 148.65 251.19 157.42 L 250.80 157.64 C 246.41 160.19 241.75 162.20 237.14 164.29 C 236.51 154.89 237.04 145.45 236.82 136.04 C 236.94 133.53 236.50 130.42 238.63 128.60 Z" />
<path fill="#109247" opacity="1.00" d=" M 174.04 146.94 C 179.45 132.29 198.72 125.26 212.43 132.58 C 225.11 138.79 230.90 155.05 225.77 168.07 C 220.16 169.64 214.52 171.07 208.86 172.39 C 211.30 169.09 214.39 165.99 215.41 161.89 C 216.27 156.96 216.03 151.42 212.81 147.33 C 207.35 139.35 194.42 138.74 188.06 145.93 C 185.55 148.55 185.11 152.31 183.35 155.36 C 181.63 158.22 177.15 158.34 174.94 156.00 C 172.33 153.78 173.03 149.80 174.04 146.94 Z" />
</g>
<g id="#e6272dff">
<path fill="#e6272d" opacity="1.00" d=" M 103.90 134.07 C 112.80 132.05 122.64 133.36 130.15 138.77 C 141.81 146.60 146.98 162.61 141.97 175.75 C 134.87 175.15 127.63 174.52 121.04 171.60 C 121.63 171.37 122.81 170.90 123.41 170.67 C 123.33 169.69 123.19 167.73 123.12 166.75 C 123.62 166.42 124.62 165.75 125.13 165.41 C 121.49 161.37 123.88 155.41 123.25 150.51 C 122.44 150.52 120.83 150.55 120.02 150.56 C 118.05 155.76 114.66 160.58 114.33 166.27 C 116.27 166.30 118.22 166.33 120.16 166.36 C 120.20 168.06 120.24 169.77 120.29 171.47 C 117.61 171.04 114.96 170.47 112.30 169.95 C 112.16 164.27 112.64 158.57 112.11 152.90 C 111.30 148.95 106.21 150.96 103.40 151.00 C 102.92 155.44 102.77 159.90 102.82 164.36 C 101.03 163.71 99.25 163.06 97.47 162.40 C 100.96 159.99 100.00 155.24 99.45 151.65 C 97.69 150.11 95.09 150.31 92.96 150.78 C 90.57 151.49 91.52 154.51 91.02 156.39 C 92.10 156.33 93.17 156.27 94.25 156.20 C 94.28 155.43 94.35 153.88 94.39 153.11 C 95.00 153.13 96.22 153.17 96.83 153.18 C 96.74 155.87 97.34 159.07 94.70 160.76 C 90.78 157.55 86.91 154.29 83.22 150.83 C 87.45 142.71 94.99 136.36 103.90 134.07 M 125.55 154.48 C 126.26 154.55 127.67 154.68 128.38 154.75 C 128.37 160.25 128.34 165.74 128.41 171.24 C 129.38 171.22 130.34 171.20 131.31 171.18 C 131.31 165.78 131.33 160.39 131.35 154.99 C 131.48 153.25 130.96 151.58 130.16 150.05 C 128.41 151.29 126.72 152.66 125.55 154.48 Z" />
<path fill="#e6272d" opacity="1.00" d=" M 105.81 153.51 C 107.00 153.21 108.48 152.21 109.09 153.89 C 109.40 158.80 109.34 163.75 108.94 168.66 C 107.91 168.52 106.88 168.37 105.85 168.22 C 105.83 163.32 105.87 158.41 105.81 153.51 Z" />
<path fill="#e6272d" opacity="1.00" d=" M 117.40 163.91 C 118.69 161.47 118.67 158.03 120.90 156.24 C 120.23 158.70 120.32 161.27 120.25 163.79 C 119.30 163.83 118.35 163.87 117.40 163.91 Z" />
</g>
<g id="#0f6936ff">
<path fill="#0f6936" opacity="1.00" d=" M 59.26 164.97 C 59.05 153.63 63.05 142.49 69.58 133.32 C 72.18 137.45 74.99 141.47 78.38 145.01 C 72.35 155.05 70.96 167.82 75.20 178.79 C 79.02 189.07 87.34 197.58 97.57 201.56 C 107.21 205.47 118.46 205.21 127.88 200.78 C 138.16 196.18 146.04 186.87 149.27 176.12 C 154.39 176.23 159.52 176.13 164.64 175.85 C 164.62 187.58 164.68 199.31 164.62 211.04 C 164.95 214.67 161.77 218.27 158.03 217.90 C 154.60 218.35 151.25 215.40 151.22 211.97 C 151.00 207.39 151.23 202.81 151.14 198.23 C 142.36 207.13 131.63 215.09 118.99 217.06 C 103.20 219.49 86.44 214.10 74.95 203.02 C 64.71 193.28 58.85 179.10 59.26 164.97 Z" />
<path fill="#0f6936" opacity="1.00" d=" M 237.14 164.29 C 241.75 162.20 246.41 160.19 250.80 157.64 C 250.91 163.76 251.36 169.88 250.92 176.00 C 250.87 188.64 251.27 201.31 250.68 213.94 C 249.14 218.66 242.16 219.56 238.70 216.35 C 237.03 215.11 236.96 212.86 236.86 210.98 C 236.77 195.47 236.98 179.97 236.76 164.46 L 237.14 164.29 Z" />
<path fill="#0f6936" opacity="1.00" d=" M 208.86 172.39 C 214.52 171.07 220.16 169.64 225.77 168.07 C 221.50 178.65 211.81 185.25 203.97 192.97 C 199.58 197.43 194.36 201.07 190.52 206.06 C 200.70 205.78 210.88 206.24 221.06 205.93 C 224.38 205.78 227.80 208.50 227.47 212.02 C 227.75 215.47 224.36 218.20 221.06 217.76 C 206.33 217.75 191.60 217.79 176.87 217.74 C 173.60 218.01 170.18 215.45 170.13 212.05 C 170.04 209.68 171.71 207.82 173.25 206.24 C 185.10 194.95 197.04 183.71 208.86 172.39 Z" />
<path fill="#0f6936" opacity="1.00" d=" M 84.33 231.72 C 84.92 231.72 86.10 231.71 86.69 231.70 C 86.53 236.69 86.97 241.68 86.82 246.67 C 86.17 246.68 84.87 246.70 84.22 246.70 C 84.06 241.70 84.50 236.71 84.33 231.72 Z" />
<path fill="#0f6936" opacity="1.00" d=" M 171.11 237.13 C 172.85 234.58 174.07 231.21 177.80 231.34 C 177.86 232.94 177.20 234.21 175.83 235.13 C 176.47 235.60 177.77 236.52 178.42 236.98 C 177.75 237.42 176.43 238.30 175.77 238.74 C 175.92 241.35 176.08 243.96 176.21 246.58 C 175.44 246.60 173.89 246.65 173.12 246.67 C 173.13 244.02 173.16 241.36 173.21 238.71 C 172.51 238.17 171.82 237.64 171.11 237.13 Z" />
<path fill="#0f6936" opacity="1.00" d=" M 216.51 232.07 C 217.24 232.08 218.70 232.12 219.43 232.13 C 219.41 236.98 219.42 241.82 219.42 246.66 C 218.69 246.67 217.23 246.68 216.50 246.68 C 216.50 241.81 216.49 236.94 216.51 232.07 Z" />
<path fill="#0f6936" opacity="1.00" d=" M 222.20 232.05 C 222.93 232.09 224.40 232.16 225.13 232.19 C 225.15 237.03 225.22 241.86 225.03 246.69 C 224.32 246.69 222.90 246.69 222.19 246.68 C 222.17 241.80 222.17 236.93 222.20 232.05 Z" />
<path fill="#0f6936" opacity="1.00" d=" M 149.86 232.49 C 151.14 232.95 152.36 233.57 152.65 235.05 C 154.37 236.39 153.91 237.67 152.15 238.73 C 151.93 241.61 152.45 244.42 154.14 246.81 C 152.57 246.71 151.00 246.60 149.43 246.46 C 149.27 243.87 149.23 241.27 149.27 238.68 C 148.83 238.30 147.95 237.55 147.51 237.17 C 148.42 235.68 149.19 234.10 149.86 232.49 Z" />
<path fill="#0f6936" opacity="1.00" d=" M 102.26 235.39 C 103.34 235.66 104.43 235.94 105.51 236.22 C 107.57 235.00 109.79 235.62 111.72 236.72 C 111.86 240.13 111.89 243.53 111.80 246.94 C 111.09 246.80 109.67 246.51 108.97 246.37 C 108.76 243.64 108.83 240.90 108.76 238.17 C 107.63 238.21 106.49 238.27 105.35 238.33 C 105.11 241.11 104.93 243.91 104.81 246.71 C 104.12 246.67 102.76 246.60 102.08 246.57 C 102.15 242.84 102.13 239.12 102.26 235.39 Z" />
<path fill="#0f6936" opacity="1.00" d=" M 137.07 239.72 C 136.91 235.12 143.52 233.93 145.97 237.14 C 146.62 240.29 146.22 243.57 146.58 246.76 C 143.62 246.37 140.63 246.63 137.66 246.74 C 137.06 244.86 136.09 242.31 138.11 240.91 C 140.20 240.14 142.38 239.69 144.48 238.99 C 142.05 237.38 139.48 238.97 137.07 239.72 M 140.31 244.62 C 142.53 245.59 143.68 243.18 143.88 241.38 C 142.35 242.01 137.85 242.27 140.31 244.62 Z" />
<path fill="#0f6936" opacity="1.00" d=" M 182.47 235.56 C 186.31 234.43 190.35 238.00 189.54 241.98 C 189.42 246.71 182.72 248.59 179.78 245.23 C 176.94 242.27 178.27 236.42 182.47 235.56 M 181.54 238.44 C 181.70 240.46 180.62 243.30 182.98 244.39 C 186.46 245.50 187.55 240.48 185.65 238.47 C 184.33 237.99 182.90 238.42 181.54 238.44 Z" />
<path fill="#0f6936" opacity="1.00" d=" M 89.66 235.50 C 90.74 235.76 91.81 236.03 92.88 236.31 C 94.94 235.39 97.74 234.80 99.09 237.18 C 100.01 240.23 99.40 243.53 99.54 246.68 C 98.81 246.68 97.34 246.68 96.61 246.68 C 96.60 243.87 96.60 241.06 96.56 238.26 C 95.27 238.32 93.99 238.39 92.71 238.48 C 92.65 241.21 92.63 243.95 92.62 246.68 C 91.88 246.68 90.39 246.67 89.64 246.67 C 89.64 242.94 89.63 239.22 89.66 235.50 Z" />
<path fill="#0f6936" opacity="1.00" d=" M 116.34 236.33 C 120.57 233.18 126.78 238.05 124.90 242.91 C 124.16 246.84 119.05 247.95 116.04 245.95 C 113.00 243.65 113.08 238.38 116.34 236.33 M 117.67 238.28 C 117.39 238.98 116.84 240.39 116.56 241.09 C 117.28 242.71 117.73 244.99 120.06 244.53 C 122.84 243.75 121.56 240.43 121.70 238.33 C 120.36 238.30 119.01 238.28 117.67 238.28 Z" />
<path fill="#0f6936" opacity="1.00" d=" M 125.44 235.51 C 126.19 235.58 127.67 235.71 128.42 235.78 C 129.63 238.12 130.19 240.72 130.97 243.22 C 132.41 240.39 131.93 234.79 136.44 235.47 C 135.19 239.24 133.82 242.97 132.42 246.69 C 131.41 246.68 130.41 246.68 129.42 246.68 C 128.09 242.96 126.76 239.24 125.44 235.51 Z" />
<path fill="#0f6936" opacity="1.00" d=" M 155.77 236.79 C 157.92 235.87 160.55 234.54 162.73 236.18 C 165.05 237.21 164.66 240.00 165.05 242.06 C 162.44 242.09 159.83 242.12 157.23 242.28 C 157.89 243.10 158.62 243.85 159.42 244.54 C 161.37 244.30 163.22 243.59 165.16 243.27 C 164.00 247.82 156.68 248.28 155.23 243.81 C 154.02 241.52 155.19 239.06 155.77 236.79 M 157.59 240.14 C 159.21 240.14 160.83 240.11 162.46 240.05 C 161.64 237.63 158.10 237.35 157.59 240.14 Z" />
<path fill="#0f6936" opacity="1.00" d=" M 191.46 235.66 C 193.54 236.26 195.62 236.31 197.55 235.20 C 197.63 235.91 197.80 237.33 197.88 238.04 C 196.89 238.60 195.17 238.34 194.68 239.56 C 194.18 241.89 194.43 244.30 194.37 246.67 C 193.64 246.68 192.18 246.68 191.45 246.68 C 191.44 243.01 191.45 239.34 191.46 235.66 Z" />
<path fill="#0f6936" opacity="1.00" d=" M 204.28 239.64 C 204.89 235.29 210.35 234.13 213.39 236.76 C 214.07 240.02 213.59 243.43 214.37 246.69 C 211.41 246.26 208.42 246.95 205.48 246.52 C 204.25 245.33 204.19 243.52 204.68 241.99 C 206.14 239.78 209.22 240.21 211.43 239.35 C 209.60 236.66 206.63 239.37 204.28 239.64 M 207.29 242.48 C 207.31 243.06 207.35 244.20 207.37 244.78 C 208.39 244.69 209.42 244.59 210.45 244.50 C 210.60 243.77 210.89 242.31 211.03 241.58 C 209.78 241.88 208.53 242.18 207.29 242.48 Z" />
</g>
<g id="#ac2127ff">
<path fill="#ac2127" opacity="1.00" d=" M 86.19 183.77 C 79.16 174.44 78.20 161.30 83.22 150.83 C 86.91 154.29 90.78 157.55 94.70 160.76 C 90.82 162.98 91.54 167.41 91.58 171.20 C 94.28 171.20 96.97 171.21 99.66 171.22 C 99.69 170.55 99.75 169.23 99.78 168.57 C 98.07 168.56 96.36 168.55 94.65 168.54 C 94.66 167.29 94.66 166.04 94.67 164.78 C 95.61 163.99 96.55 163.21 97.47 162.40 C 99.25 163.06 101.03 163.71 102.82 164.36 C 102.93 166.36 103.05 168.40 103.71 170.31 C 106.39 171.97 109.62 171.14 112.30 169.95 C 114.96 170.47 117.61 171.04 120.29 171.47 C 120.48 171.50 120.85 171.57 121.04 171.60 C 127.63 174.52 134.87 175.15 141.97 175.75 C 138.50 185.46 130.08 193.24 120.06 195.75 C 107.71 199.22 93.66 194.17 86.19 183.77 M 113.94 171.89 C 113.83 175.46 113.72 179.03 113.59 182.61 C 114.95 182.06 116.32 181.53 117.69 181.02 C 119.36 183.47 119.56 188.12 123.30 188.10 C 122.33 185.22 120.95 182.52 119.55 179.84 C 120.78 179.16 122.01 178.50 123.25 177.84 C 120.29 175.63 117.18 173.65 113.94 171.89 Z" />
</g>
<g id="#faf9faff">
<path fill="#faf9fa" opacity="1.00" d=" M 91.02 156.39 C 91.52 154.51 90.57 151.49 92.96 150.78 C 95.09 150.31 97.69 150.11 99.45 151.65 C 100.00 155.24 100.96 159.99 97.47 162.40 C 96.55 163.21 95.61 163.99 94.67 164.78 C 94.66 166.04 94.66 167.29 94.65 168.54 C 96.36 168.55 98.07 168.56 99.78 168.57 C 99.75 169.23 99.69 170.55 99.66 171.22 C 96.97 171.21 94.28 171.20 91.58 171.20 C 91.54 167.41 90.82 162.98 94.70 160.76 C 97.34 159.07 96.74 155.87 96.83 153.18 C 96.22 153.17 95.00 153.13 94.39 153.11 C 94.35 153.88 94.28 155.43 94.25 156.20 C 93.17 156.27 92.10 156.33 91.02 156.39 Z" />
<path fill="#faf9fa" opacity="1.00" d=" M 103.40 151.00 C 106.21 150.96 111.30 148.95 112.11 152.90 C 112.64 158.57 112.16 164.27 112.30 169.95 C 109.62 171.14 106.39 171.97 103.71 170.31 C 103.05 168.40 102.93 166.36 102.82 164.36 C 102.77 159.90 102.92 155.44 103.40 151.00 M 105.81 153.51 C 105.87 158.41 105.83 163.32 105.85 168.22 C 106.88 168.37 107.91 168.52 108.94 168.66 C 109.34 163.75 109.40 158.80 109.09 153.89 C 108.48 152.21 107.00 153.21 105.81 153.51 Z" />
<path fill="#faf9fa" opacity="1.00" d=" M 120.02 150.56 C 120.83 150.55 122.44 150.52 123.25 150.51 C 123.88 155.41 121.49 161.37 125.13 165.41 C 124.62 165.75 123.62 166.42 123.12 166.75 C 123.19 167.73 123.33 169.69 123.41 170.67 C 122.81 170.90 121.63 171.37 121.04 171.60 C 120.85 171.57 120.48 171.50 120.29 171.47 C 120.24 169.77 120.20 168.06 120.16 166.36 C 118.22 166.33 116.27 166.30 114.33 166.27 C 114.66 160.58 118.05 155.76 120.02 150.56 M 117.40 163.91 C 118.35 163.87 119.30 163.83 120.25 163.79 C 120.32 161.27 120.23 158.70 120.90 156.24 C 118.67 158.03 118.69 161.47 117.40 163.91 Z" />
<path fill="#faf9fa" opacity="1.00" d=" M 125.55 154.48 C 126.72 152.66 128.41 151.29 130.16 150.05 C 130.96 151.58 131.48 153.25 131.35 154.99 C 131.33 160.39 131.31 165.78 131.31 171.18 C 130.34 171.20 129.38 171.22 128.41 171.24 C 128.34 165.74 128.37 160.25 128.38 154.75 C 127.67 154.68 126.26 154.55 125.55 154.48 Z" />
<path fill="#faf9fa" opacity="1.00" d=" M 113.94 171.89 C 117.18 173.65 120.29 175.63 123.25 177.84 C 122.01 178.50 120.78 179.16 119.55 179.84 C 120.95 182.52 122.33 185.22 123.30 188.10 C 119.56 188.12 119.36 183.47 117.69 181.02 C 116.32 181.53 114.95 182.06 113.59 182.61 C 113.72 179.03 113.83 175.46 113.94 171.89 Z" />
</g>
</svg>
